<svg width="336" height="426" viewBox="0 0 336 426" fill="none" xmlns="http://www.w3.org/2000/svg">
<path d="M31.6421 398.104V389.9C31.6421 385.463 28.0454 381.866 23.6087 381.866C20.8289 381.866 18.5754 379.613 18.5754 376.833V313.971C18.5754 308.269 16.3102 302.801 12.2782 298.769L7.58454 294.075C4.11512 290.605 2.16602 285.9 2.16602 280.993V277.257C2.16602 267.04 10.4487 258.757 20.666 258.757H26.6066C32.3088 258.757 37.7774 256.492 41.8094 252.46L52.9976 241.272C57.0297 237.24 59.2948 231.771 59.2948 226.069V119.242C59.2948 109.024 67.5776 100.742 77.7948 100.742H89.468C92.9893 100.742 96.3662 102.14 98.8561 104.63C105.213 110.987 115.518 110.987 121.875 104.63L123.889 102.616C127.475 99.0297 129.49 94.1652 129.49 89.093V58.1846C129.49 53.2781 131.439 48.5725 134.909 45.1031L152.86 27.1521C156.329 23.6827 161.035 21.7336 165.941 21.7336H189.788C195.491 21.7336 200.959 19.4684 204.991 15.4364L213.331 7.09626C216.801 3.62683 221.506 1.67773 226.413 1.67773H310.164C320.161 1.67773 328.265 9.78141 328.265 19.7778C328.265 29.7742 320.161 37.8778 310.164 37.8778H285.039C273.165 37.8778 263.539 47.5037 263.539 59.3778V104.463C263.539 116.337 273.165 125.963 285.039 125.963H309.764C319.982 125.963 328.265 134.246 328.265 144.463V188.885C328.265 193.763 324.31 197.717 319.433 197.717C312.898 197.717 307.601 203.014 307.601 209.549V226.414C307.601 229.362 305.211 231.751 302.264 231.751C297.659 231.751 293.926 235.484 293.926 240.088V244.647C293.926 251.768 299.7 257.542 306.822 257.542H315.33C325.495 257.542 333.734 265.782 333.734 275.946V372.179C333.734 382.396 325.452 390.679 315.234 390.679H281.528C275.826 390.679 270.357 392.944 266.325 396.976L244.918 418.383C241.449 421.852 236.743 423.801 231.837 423.801H219.233C214.326 423.801 209.621 421.852 206.152 418.383L205.408 417.64C201.376 413.608 195.908 411.342 190.205 411.342H44.8801C37.5689 411.342 31.6421 405.415 31.6421 398.104Z" stroke="#D9D9D9" stroke-width="3"/>
</svg>
