<svg width="404" height="457" viewBox="0 0 404 457" fill="none" xmlns="http://www.w3.org/2000/svg">
<path d="M22.037 5.51071C23.3796 5.51071 24.468 4.42231 24.468 3.0797V3.0797C24.468 1.73708 25.5564 0.648682 26.899 0.648682H136.632C141.936 0.648682 147.024 2.75582 150.774 6.50655L162.648 18.38C166.398 22.1307 168.506 27.2178 168.506 32.5221V56.8659V56.8659C168.506 58.1554 169.018 59.392 169.93 60.3038V60.3038L201.837 92.2109V92.2109C202.748 93.1227 203.985 93.635 205.275 93.635V93.635H217.159C222.464 93.635 227.551 95.7421 231.302 99.4928L248.33 116.521V116.521C249.242 117.433 250.478 117.945 251.768 117.945V117.945H284.283V117.945C285.572 117.945 286.809 117.433 287.721 116.521V116.521L299.279 104.963C303.03 101.212 308.117 99.1047 313.421 99.1047H320.174C325.478 99.1047 330.565 101.212 334.316 104.963L352.256 122.902V122.902C353.167 123.814 354.404 124.326 355.694 124.326V124.326H374.534C376.548 124.326 378.181 125.959 378.181 127.973V127.973V127.973C378.181 129.263 378.693 130.499 379.605 131.411V131.411L397.274 149.081C405.085 156.891 405.085 169.554 397.274 177.365L392.367 182.272V182.272C391.456 183.183 390.943 184.42 390.943 185.71V185.71V226.916C390.943 229.012 390.111 231.021 388.629 232.503V232.503C385.544 235.588 380.541 235.588 377.456 232.503L373.718 228.765V228.765C372.806 227.853 371.569 227.341 370.28 227.341V227.341H325.61V227.341C322.925 227.341 320.748 229.518 320.748 232.203V232.203V359.865C320.748 365.169 318.641 370.256 314.89 374.007L309.398 379.499C305.647 383.249 300.56 385.357 295.256 385.357H268.481V385.357C265.796 385.357 263.619 387.533 263.619 390.219V390.219V429.115V429.115C263.619 430.404 264.131 431.641 265.043 432.553V432.553L278.18 445.69C279.363 446.873 280.028 448.478 280.028 450.152V450.152C280.028 453.638 277.203 456.464 273.717 456.464H144.747C133.702 456.464 124.747 447.509 124.747 436.464V413.865C124.747 402.819 133.702 393.865 144.747 393.865H196.822C207.868 393.865 216.822 384.911 216.822 373.865V214.826C216.822 203.78 207.868 194.826 196.822 194.826H107.674C96.6287 194.826 87.6744 185.872 87.6744 174.826V53.4674C87.6744 42.4217 78.7201 33.4674 67.6744 33.4674H14.744C7.02395 33.4674 0.765625 27.2091 0.765625 19.489V17.3619C0.765625 10.8167 6.07159 5.51071 12.6168 5.51071H22.037Z" fill="#C8102E"/>
</svg>
