<svg width="259" height="259" viewBox="0 0 259 259" fill="none" xmlns="http://www.w3.org/2000/svg">
<path d="M106.619 144.956C101.191 147.007 96.1448 148.139 91.4812 148.351C86.9275 148.612 82.1121 148.06 77.035 146.695L69.9759 128.016C74.9324 129.062 79.338 129.495 83.1927 129.316C87.0475 129.136 91.0103 128.277 95.0813 126.738C98.4339 125.471 101.076 123.652 103.007 121.28C105.019 118.878 106.123 115.404 106.322 110.859L108.255 41.0264L137.351 30.0305L131.281 111.005C130.828 117.288 129.408 122.705 127.023 127.256C124.717 131.776 121.77 135.444 118.182 138.26C114.624 141.155 110.769 143.387 106.619 144.956ZM93.8852 115.97L42.6406 65.8237L72.8137 54.4205L120.227 106.015L93.8852 115.97Z" fill="black"/>
<path d="M144.3 157.871C148.79 161.546 152.293 165.35 154.808 169.283C157.311 173.096 159.241 177.542 160.597 182.622L147.951 198.074C146.378 193.259 144.551 189.227 142.468 185.978C140.385 182.73 137.659 179.727 134.291 176.971C131.518 174.701 128.621 173.323 125.601 172.836C122.515 172.295 118.955 173.075 114.92 175.176L53.4757 208.418L29.4053 188.719L102.566 153.488C108.234 150.739 113.635 149.26 118.769 149.05C123.836 148.787 128.486 149.505 132.719 151.205C137.005 152.838 140.866 155.06 144.3 157.871ZM125.564 183.391L107.758 252.843L82.7961 232.414L103.771 165.556L125.564 183.391Z" fill="black"/>
<path d="M228.521 129.923C227.838 136.664 225.406 142.595 221.225 147.715C217.044 152.75 211.582 156.675 204.841 159.491C198.185 162.307 190.676 163.715 182.313 163.715C173.182 163.715 165.076 162.094 157.993 158.851C150.996 155.608 145.534 151.043 141.609 145.155C137.684 139.267 135.721 132.526 135.721 124.931C135.721 117.166 137.684 110.382 141.609 104.579C145.534 98.7763 150.996 94.2536 157.993 91.011C165.076 87.683 173.182 86.019 182.313 86.019C190.676 86.019 198.185 87.427 204.841 90.243C211.582 93.059 217.044 96.9843 221.225 102.019C225.406 107.054 227.838 112.984 228.521 119.811H199.465C198.612 115.8 196.649 112.771 193.577 110.723C190.505 108.59 186.75 107.523 182.313 107.523C178.9 107.523 175.913 108.206 173.353 109.571C170.793 110.851 168.83 112.814 167.465 115.459C166.1 118.019 165.417 121.176 165.417 124.931C165.417 128.686 166.1 131.843 167.465 134.403C168.83 136.963 170.793 138.926 173.353 140.291C175.913 141.571 178.9 142.211 182.313 142.211C186.75 142.211 190.505 141.102 193.577 138.883C196.649 136.579 198.612 133.592 199.465 129.923H228.521Z" fill="black"/>
</svg>
