<svg width="281" height="408" viewBox="0 0 281 408" fill="none" xmlns="http://www.w3.org/2000/svg">
<path d="M6.30219 170.672C2.55147 166.922 0.444336 161.834 0.444336 156.53V20C0.444336 8.9543 9.39864 0 20.4443 0H65.1701C70.037 0 73.9825 3.94546 73.9825 8.81243V9.57212C73.9825 14.0195 77.5878 17.6249 82.0352 17.6249V17.6249C86.4826 17.6249 90.088 21.2302 90.088 25.6776V45.3335C90.088 56.3792 99.0423 65.3335 110.088 65.3335H195.893C206.939 65.3335 215.893 74.2878 215.893 85.3335V319.734C215.893 330.78 224.847 339.734 235.893 339.734H260.619C271.664 339.734 280.619 348.688 280.619 359.734V362.885C280.619 373.93 271.664 382.885 260.619 382.885H166.969V382.885C165.679 382.885 164.443 383.397 163.531 384.309V384.309L150.757 397.083C147.006 400.833 141.919 402.941 136.615 402.941H106.497V402.941C105.208 402.941 103.971 403.453 103.059 404.365V404.365V404.365C99.4198 408.004 93.519 408.004 89.8794 404.365L70.6741 385.159C67.7336 382.219 66.0817 378.231 66.0817 374.072V374.072V338.215V338.215C66.0817 336.925 65.5695 335.689 64.6577 334.777V334.777L59.1768 329.296C55.426 325.545 53.3189 320.458 53.3189 315.154V291.722V291.722C53.3189 290.432 52.8066 289.195 51.8948 288.284V288.284L34.8666 271.255C31.1159 267.505 29.0087 262.418 29.0087 257.113V195.393V195.393C29.0087 194.103 28.4965 192.867 27.5847 191.955V191.955L6.30219 170.672Z" fill="#C8102E"/>
</svg>
