<svg width="354" height="370" viewBox="0 0 354 370" fill="none" xmlns="http://www.w3.org/2000/svg">
<path fill-rule="evenodd" clip-rule="evenodd" d="M288.151 166.828V20C288.151 8.95431 279.197 0 268.151 0H223.274C215.134 0 208.536 6.59844 208.536 14.738V14.738C208.536 22.8776 201.937 29.476 193.798 29.476H113.726C103.824 29.476 95.7973 37.503 95.7973 47.4048V49.0761C95.7973 58.0548 88.5187 65.3335 79.5399 65.3335V65.3335C70.5612 65.3335 63.2825 72.6122 63.2825 81.5909V112.738C63.2825 121.633 56.0719 128.844 47.1771 128.844V128.844C38.2823 128.844 31.0716 136.054 31.0716 144.949V202.382C31.0716 210.941 24.133 217.88 15.5739 217.88H13.9026C6.26646 217.88 0.0761719 224.07 0.0761719 231.706V231.706C0.0761719 239.342 6.26645 245.532 13.9025 245.532H122.538V245.532C123.828 245.532 125.065 246.045 125.976 246.956V246.956L152.414 273.394V273.394C153.326 274.306 153.838 275.542 153.838 276.832V276.832V301.175C153.838 306.48 155.945 311.567 159.696 315.318L177.039 332.661C180.79 336.412 185.877 338.519 191.181 338.519H203.066V338.519C204.355 338.519 205.592 339.031 206.504 339.943V339.943L223.532 356.971C227.283 360.722 232.37 362.829 237.674 362.829H249.593C254.897 362.829 259.984 360.722 263.735 356.971L275.293 345.412V345.412C276.205 344.501 277.442 343.988 278.731 343.988V343.988H306.08V343.988C307.37 343.988 308.606 344.501 309.518 345.412V345.412L329.076 364.97C331.791 367.685 335.473 369.21 339.312 369.21V369.21C347.307 369.21 353.789 362.729 353.789 354.734V348.513C353.789 343.209 351.682 338.122 347.931 334.371L342.45 328.89V328.89C341.538 327.978 341.026 326.741 341.026 325.452V325.452V302.02C341.026 296.715 338.919 291.628 335.168 287.878L318.14 270.849V270.849C317.228 269.938 316.716 268.701 316.716 267.411V267.411V205.691C316.716 200.387 314.609 195.3 310.858 191.549L289.575 170.266V170.266C288.664 169.354 288.151 168.118 288.151 166.828V166.828Z" fill="#C8102E"/>
</svg>
