<svg width="335" height="426" viewBox="0 0 335 426" fill="none" xmlns="http://www.w3.org/2000/svg">
<path d="M29.9077 389.9C29.9077 386.291 26.9826 383.366 23.3743 383.366V383.366C19.7661 383.366 16.841 380.441 16.841 376.833V313.971C16.841 308.667 14.7338 303.58 10.9831 299.829L6.28951 295.136C2.53878 291.385 0.431641 286.298 0.431641 280.993V277.257C0.431641 266.212 9.38595 257.257 20.4316 257.257H26.3722C31.6766 257.257 36.7636 255.15 40.5144 251.4L51.7026 240.211C55.4533 236.461 57.5605 231.374 57.5605 226.069V119.242C57.5605 108.196 66.5148 99.2415 77.5605 99.2415H89.2337C93.1527 99.2415 96.9112 100.798 99.6824 103.57V103.57C105.453 109.34 114.809 109.34 120.58 103.57L122.594 101.556C125.899 98.2503 127.756 93.7674 127.756 89.093V58.1846C127.756 52.8802 129.863 47.7932 133.614 44.0424L151.565 26.0915C155.316 22.3407 160.403 20.2336 165.707 20.2336H189.554C194.858 20.2336 199.945 18.1265 203.696 14.3757L212.036 6.0356C215.787 2.28487 220.874 0.177734 226.178 0.177734H309.93C320.755 0.177734 329.53 8.95298 329.53 19.7778V19.7778C329.53 30.6026 320.755 39.3778 309.93 39.3778H284.804C273.759 39.3778 264.804 48.3321 264.804 59.3778V104.463C264.804 115.509 273.759 124.463 284.804 124.463H309.53C320.576 124.463 329.53 133.418 329.53 144.463V188.885C329.53 194.591 324.904 199.217 319.198 199.217V199.217C313.492 199.217 308.867 203.843 308.867 209.549V226.414C308.867 230.19 305.805 233.251 302.029 233.251V233.251C298.253 233.251 295.192 236.312 295.192 240.088V244.647C295.192 250.94 300.294 256.042 306.587 256.042H315.096C326.089 256.042 335 264.953 335 275.946V372.179C335 383.224 326.046 392.179 315 392.179H281.293C275.989 392.179 270.902 394.286 267.151 398.037L245.744 419.443C241.994 423.194 236.907 425.301 231.602 425.301H218.999C213.694 425.301 208.607 423.194 204.856 419.443L204.113 418.7C200.363 414.949 195.275 412.842 189.971 412.842H44.6457C36.5061 412.842 29.9077 406.244 29.9077 398.104V389.9Z" fill="#C8102E"/>
</svg>
