<svg width="281" height="408" viewBox="0 0 281 408" fill="none" xmlns="http://www.w3.org/2000/svg">
<path d="M2.17871 156.53V20C2.17871 9.78272 10.4614 1.5 20.6787 1.5H65.4044C69.443 1.5 72.7169 4.77389 72.7169 8.81243V9.57212C72.7169 14.8479 76.9938 19.1248 82.2696 19.1248C85.8886 19.1248 88.8223 22.0586 88.8223 25.6776V45.3335C88.8223 57.2076 98.4482 66.8335 110.322 66.8335H196.127C206.345 66.8335 214.627 75.1162 214.627 85.3335V319.734C214.627 331.608 224.253 341.234 236.127 341.234H260.853C271.07 341.234 279.353 349.517 279.353 359.734V362.885C279.353 373.102 271.07 381.385 260.853 381.385H167.203C165.516 381.385 163.898 382.055 162.705 383.248L149.931 396.022C146.461 399.491 141.756 401.441 136.849 401.441H106.732C105.044 401.441 103.426 402.111 102.233 403.304C99.1793 406.358 94.2282 406.358 91.1745 403.304L71.9691 384.099C69.31 381.439 67.8161 377.833 67.8161 374.072V338.215C67.8161 336.527 67.1458 334.909 65.9527 333.716L60.4718 328.235C57.0024 324.766 55.0533 320.06 55.0533 315.154V291.722C55.0533 290.034 54.383 288.416 53.1899 287.223L36.1616 270.195C32.6922 266.725 30.7431 262.02 30.7431 257.113V195.393C30.7431 193.705 30.0728 192.087 28.8797 190.894L7.59723 169.612C4.12781 166.142 2.17871 161.437 2.17871 156.53Z" stroke="#D9D9D9" stroke-width="3"/>
</svg>
