<svg width="355" height="370" viewBox="0 0 355 370" fill="none" xmlns="http://www.w3.org/2000/svg">
<path d="M286.886 20V166.828C286.886 168.516 287.556 170.134 288.749 171.327L310.032 192.609C313.501 196.079 315.45 200.784 315.45 205.691V267.411C315.45 269.099 316.12 270.717 317.313 271.91L334.342 288.938C337.811 292.408 339.76 297.113 339.76 302.02V325.452C339.76 327.139 340.431 328.757 341.624 329.951L347.105 335.431C350.574 338.901 352.523 343.606 352.523 348.513V354.734C352.523 361.9 346.713 367.71 339.546 367.71C336.105 367.71 332.804 366.343 330.371 363.909L310.813 344.352C309.62 343.159 308.002 342.488 306.314 342.488H278.966C277.278 342.488 275.66 343.159 274.467 344.352L262.908 355.91C259.439 359.38 254.733 361.329 249.827 361.329H237.909C233.002 361.329 228.296 359.38 224.827 355.91L207.799 338.882C206.606 337.689 204.988 337.019 203.3 337.019H191.415C186.509 337.019 181.803 335.07 178.334 331.6L160.991 314.257C157.521 310.787 155.572 306.082 155.572 301.175V276.832C155.572 275.144 154.902 273.526 153.709 272.333L127.272 245.896C126.078 244.703 124.46 244.032 122.773 244.032H14.1369C7.32925 244.032 1.81055 238.514 1.81055 231.706C1.81055 224.898 7.32926 219.38 14.1369 219.38H15.8083C25.1958 219.38 32.806 211.769 32.806 202.382V144.949C32.806 136.883 39.3451 130.344 47.4114 130.344C57.1347 130.344 65.0169 122.461 65.0169 112.738V81.5909C65.0169 73.4406 71.624 66.8335 79.7743 66.8335C89.5815 66.8335 97.5317 58.8832 97.5317 49.0761V47.4048C97.5317 38.3314 104.887 30.976 113.96 30.976H194.032C203 30.976 210.27 23.706 210.27 14.738C210.27 7.42687 216.197 1.5 223.508 1.5H268.386C278.603 1.5 286.886 9.78273 286.886 20Z" stroke="#D9D9D9" stroke-width="3"/>
</svg>
