<svg width="403" height="457" viewBox="0 0 403 457" fill="none" xmlns="http://www.w3.org/2000/svg">
<path d="M11.8512 7.01071H21.2714C23.4424 7.01071 25.2024 5.25073 25.2024 3.0797C25.2024 2.56551 25.6192 2.14868 26.1334 2.14868H135.867C140.773 2.14868 145.479 4.09778 148.948 7.56721L160.821 19.4406C164.291 22.9101 166.24 27.6156 166.24 32.5221V56.8659C166.24 58.5532 166.91 60.1714 168.103 61.3645L200.01 93.2716C201.204 94.4647 202.822 95.1349 204.509 95.1349H216.394C221.3 95.1349 226.006 97.0841 229.475 100.553L246.504 117.582C247.697 118.775 249.315 119.445 251.002 119.445H283.517C285.204 119.445 286.823 118.775 288.016 117.582L299.574 106.023C303.043 102.554 307.749 100.605 312.656 100.605H319.408C324.315 100.605 329.02 102.554 332.49 106.023L350.429 123.963C351.622 125.156 353.241 125.826 354.928 125.826H373.768C374.954 125.826 375.915 126.788 375.915 127.973C375.915 129.66 376.585 131.279 377.778 132.472L395.448 150.141C402.673 157.366 402.673 169.079 395.448 176.304L390.541 181.211C389.348 182.404 388.678 184.022 388.678 185.71V226.916C388.678 228.614 388.003 230.242 386.803 231.442C384.303 233.942 380.251 233.942 377.751 231.442L374.013 227.704C372.82 226.511 371.201 225.841 369.514 225.841H324.844C321.331 225.841 318.482 228.689 318.482 232.203V359.865C318.482 364.771 316.533 369.477 313.064 372.946L307.572 378.438C304.102 381.907 299.397 383.857 294.49 383.857H267.715C264.202 383.857 261.353 386.705 261.353 390.219V429.115C261.353 430.802 262.024 432.42 263.217 433.613L276.353 446.75C277.256 447.652 277.763 448.876 277.763 450.152C277.763 452.81 275.609 454.964 272.951 454.964H143.982C133.764 454.964 125.482 446.681 125.482 436.464V413.865C125.482 403.648 133.764 395.365 143.982 395.365H196.056C207.93 395.365 217.556 385.739 217.556 373.865V214.826C217.556 202.952 207.93 193.326 196.056 193.326H106.909C96.6915 193.326 88.4087 185.043 88.4087 174.826V53.4674C88.4087 41.5933 78.7829 31.9674 66.9087 31.9674H13.9783C7.08675 31.9674 1.5 26.3806 1.5 19.489V17.3619C1.5 11.6451 6.13439 7.01071 11.8512 7.01071Z" stroke="#D9D9D9" stroke-width="3"/>
</svg>
